<svg width="112" height="112" viewBox="0 0 112 112" fill="none" xmlns="http://www.w3.org/2000/svg">
<g clip-path="url(#clip0_103:9)">
<path d="M56 -2.32446C25.1472 -2.32446 -2.32452 11.834 -2.32452 58.3246H114.325C114.113 18.1736 86.8528 -2.32446 56 -2.32446V-2.32446Z" fill="#D3396D"/>
<path d="M112 56H-2.32452C-2.32452 86.8528 25.1472 114.325 56 114.325C86.8528 114.325 114.325 86.8528 114.325 56H112Z" fill="#EC407A"/>
<path d="M35.9245 51.7737H67.6226V70.7926H35.9245V51.7737Z" fill="#D3396D"/>
<path d="M58.7366 35.9246C59.7237 35.9244 60.6971 36.1547 61.5795 36.5972C62.4618 37.0396 63.2286 37.682 63.8189 38.4731L64.4528 39.3247C65.0431 40.1158 65.8099 40.7582 66.6923 41.2006C67.5746 41.6431 68.5481 41.8734 69.5351 41.8732H72.2717C73.841 41.8732 75.346 42.4966 76.4556 43.6063C77.5653 44.7159 78.1887 46.2209 78.1887 47.7902V67.6227C78.1887 69.8645 77.2981 72.0145 75.7129 73.5997C74.1277 75.1849 71.9777 76.0755 69.7359 76.0755H42.2642C40.0223 76.0755 37.8723 75.1849 36.2871 73.5997C34.7019 72.0145 33.8113 69.8645 33.8113 67.6227V47.7902C33.8113 46.2209 34.4347 44.7159 35.5444 43.6063C36.654 42.4966 38.159 41.8732 39.7283 41.8732H42.4649C43.452 41.8734 44.4254 41.6431 45.3078 41.2006C46.1901 40.7582 46.9569 40.1158 47.5472 39.3247L48.1811 38.4731C48.7714 37.682 49.5382 37.0396 50.4206 36.5972C51.3029 36.1547 52.2764 35.9244 53.2634 35.9246H58.7366V35.9246ZM56 47.0189C53.0573 47.0192 50.2353 48.1884 48.1547 50.2694C46.0741 52.3504 44.9054 55.1727 44.9057 58.1154C44.906 61.058 46.0752 63.8801 48.1562 65.9607C50.2372 68.0413 53.0594 69.21 56.0021 69.2097C58.9448 69.2094 61.7669 68.0402 63.8474 65.9592C65.928 63.8782 67.0967 61.0559 67.0965 58.1132C67.0962 55.1706 65.9269 52.3485 63.846 50.2679C61.765 48.1873 58.9427 47.0186 56 47.0189V47.0189ZM56 50.717C56.9713 50.717 57.9331 50.9083 58.8304 51.28C59.7278 51.6517 60.5431 52.1965 61.2299 52.8833C61.9167 53.5701 62.4615 54.3855 62.8332 55.2828C63.2049 56.1802 63.3962 57.142 63.3962 58.1132C63.3962 59.0845 63.2049 60.0463 62.8332 60.9437C62.4615 61.841 61.9167 62.6564 61.2299 63.3432C60.5431 64.03 59.7278 64.5748 58.8304 64.9465C57.9331 65.3182 56.9713 65.5095 56 65.5095C54.0384 65.5095 52.1572 64.7302 50.7701 63.3432C49.383 61.9561 48.6038 60.0748 48.6038 58.1132C48.6038 56.1516 49.383 54.2704 50.7701 52.8833C52.1572 51.4963 54.0384 50.717 56 50.717V50.717Z" fill="#F5F5F5"/>
</g>
<defs>
<clipPath id="clip0_103:9">
<rect width="112" height="112" fill="white"/>
</clipPath>
</defs>
</svg>
