<svg width="117" height="117" viewBox="0 0 117 117" fill="none" xmlns="http://www.w3.org/2000/svg">
<g clip-path="url(#clip0_103:16)">
<path d="M58.5 -2.42822C26.2698 -2.42822 -2.4283 12.3623 -2.4283 60.9284H119.428C119.208 18.985 90.7302 -2.42822 58.5 -2.42822V-2.42822Z" fill="#5157AE"/>
<path d="M117 58.5H-2.4283C-2.4283 90.7302 26.2698 119.428 58.5 119.428C90.7302 119.428 119.428 90.7302 119.428 58.5H117Z" fill="#5F66CD"/>
<path d="M64.2175 37.727C63.3787 36.8881 62.2528 36.4246 61.0828 36.4246H45.2547C42.8264 36.4246 40.8396 38.4114 40.8396 40.8397V76.1604C40.8396 78.5887 42.8043 80.5755 45.2326 80.5755H71.7453C74.1736 80.5755 76.1604 78.5887 76.1604 76.1604V51.5021C76.1604 50.3321 75.6968 49.2063 74.8579 48.3895L64.2175 37.727V37.727ZM60.7075 49.6698V39.7359L72.8491 51.8774H62.9151C61.7009 51.8774 60.7075 50.884 60.7075 49.6698Z" fill="#F5F5F5"/>
</g>
<defs>
<clipPath id="clip0_103:16">
<rect width="117" height="117" fill="white"/>
</clipPath>
</defs>
</svg>
