<svg width="110" height="110" viewBox="0 0 110 110" fill="none" xmlns="http://www.w3.org/2000/svg">
<g clip-path="url(#clip0_103:2)">
<path d="M55 -2.28296C24.6981 -2.28296 -2.28302 11.6227 -2.28302 57.2831H112.283C112.075 17.8491 85.3019 -2.28296 55 -2.28296V-2.28296Z" fill="#AC44CF"/>
<path d="M110 55H-2.28302C-2.28302 85.3019 24.6981 112.283 55 112.283C85.3019 112.283 112.283 85.3019 112.283 55H110Z" fill="#BF59CF"/>
<path d="M35.283 50.8491H72.6415V69.5284H35.283V50.8491Z" fill="#AC44CF"/>
<path d="M38.0185 37.8773H71.9815C73.7726 37.8773 75.5658 39.5937 75.7402 41.3973L75.7547 41.6817V68.3183C75.7547 70.126 74.0528 71.9317 72.2638 72.1081L71.9815 72.1226H38.0185C37.068 72.1163 36.1544 71.7538 35.4581 71.1067C34.7619 70.4596 34.3336 69.575 34.2577 68.6275L34.2453 68.3183V41.6817C34.2453 39.876 35.9472 38.0683 37.7362 37.8918L38.0185 37.8773H71.9815H38.0185ZM48.564 54.9377L40.7166 65.4064C40.1583 66.1432 40.6087 66.9339 41.526 66.9339H68.4138C69.3311 66.9111 69.8687 66.0996 69.2875 65.3607L63.7211 58.2024C63.6178 58.0707 63.4863 57.9637 63.3362 57.8895C63.1861 57.8152 63.0213 57.7755 62.8539 57.7733C62.6864 57.7712 62.5206 57.8065 62.3687 57.8768C62.2167 57.9471 62.0824 58.0506 61.9757 58.1796L57.2809 63.8394L50.3509 54.9149C50.2447 54.7782 50.1082 54.668 49.9522 54.5929C49.7962 54.5178 49.6249 54.4798 49.4518 54.4821C49.2787 54.4843 49.1084 54.5266 48.9544 54.6056C48.8003 54.6847 48.6667 54.7983 48.564 54.9377ZM65.8962 44.1037C65.4191 44.1039 64.9467 44.198 64.506 44.3807C64.0652 44.5634 63.6648 44.8311 63.3275 45.1686C62.9903 45.506 62.7228 45.9066 62.5403 46.3475C62.3579 46.7883 62.264 47.2608 62.2642 47.7379C62.2643 48.215 62.3584 48.6874 62.5411 49.1281C62.7238 49.5689 62.9915 49.9693 63.329 50.3066C63.6665 50.6439 64.067 50.9114 64.5079 51.0938C64.9487 51.2763 65.4212 51.3701 65.8983 51.37C66.8619 51.3697 67.7859 50.9866 68.467 50.3051C69.1481 49.6236 69.5307 48.6994 69.5304 47.7358C69.5301 46.7723 69.1471 45.8483 68.4655 45.1671C67.784 44.486 66.8598 44.1035 65.8962 44.1037V44.1037Z" fill="#F5F5F5"/>
</g>
<defs>
<clipPath id="clip0_103:2">
<rect width="110" height="110" fill="white"/>
</clipPath>
</defs>
</svg>
